<?xml version="1.0" standalone="no"?>
<!DOCTYPE svg PUBLIC "-//W3C//DTD SVG 20010904//EN"
 "http://www.w3.org/TR/2001/REC-SVG-20010904/DTD/svg10.dtd">
<svg version="1.0" xmlns="http://www.w3.org/2000/svg"
 width="100.000000pt" height="100.000000pt" viewBox="0 0 100.000000 100.000000"
 preserveAspectRatio="xMidYMid meet">
<metadata>
Created by potrace 1.14, written by Peter Selinger 2001-2017
</metadata>
<g transform="translate(0.000000,100.000000) scale(0.100000,-0.100000)"
fill="#000000" stroke="none">
<path d="M0 500 l0 -500 500 0 500 0 0 500 0 500 -500 0 -500 0 0 -500z m626
315 c31 -9 63 -28 84 -50 29 -30 34 -43 37 -92 3 -45 0 -65 -16 -90 -23 -37
-81 -70 -142 -79 l-43 -7 48 -12 c26 -7 56 -21 66 -31 10 -11 38 -64 63 -119
34 -76 50 -101 66 -103 11 -2 21 -8 21 -13 0 -5 -36 -9 -80 -9 -73 0 -82 2
-110 28 -18 16 -50 72 -80 137 -46 102 -52 110 -77 110 l-28 0 0 -125 0 -125
25 -3 c14 -2 29 -8 35 -13 5 -5 -46 -9 -130 -9 -83 0 -135 4 -130 9 6 5 19 11
30 13 19 3 20 12 23 286 l2 283 -32 14 c-30 13 -18 14 143 15 126 0 189 -4
225 -15z"/>
<path d="M430 660 l0 -150 38 0 c49 0 81 18 110 60 21 30 23 44 20 104 -4 64
-6 70 -41 102 -30 28 -44 34 -82 34 l-45 0 0 -150z"/>
</g>
</svg>
